<svg width="15" height="14" viewBox="0 0 15 14" fill="none" xmlns="http://www.w3.org/2000/svg">
<path d="M8.42979 1.64279L8.42956 1.64302L7.8529 2.23725L7.49408 2.60699L7.13526 2.23725L6.5586 1.64302L6.55802 1.64243C5.25033 0.290443 3.16001 0.101084 1.77979 1.27702L8.42979 1.64279ZM8.42979 1.64279C9.74082 0.290059 11.8286 0.101225 13.2087 1.27726C14.8241 2.6563 14.9108 5.13809 13.4608 6.63448L13.4607 6.63458M8.42979 1.64279L13.4607 6.63458M13.4607 6.63458L7.79656 12.4831C7.62711 12.658 7.35812 12.658 7.18868 12.4831L1.52478 6.6348M13.4607 6.63458L1.52478 6.6348M1.52478 6.6348C0.07723 5.13831 0.16406 2.65613 1.77971 1.27708L1.52478 6.6348Z" stroke="black"/>
</svg>
